# xmcd CD database file
#
# Track frame offsets:
#	150
#	21187
#	41889
#	45298
#	64334
#	79970
#	102044
#	120372
#	139231
#	159167
#	175175
#	178499
#	192819
#	209415
#	227429
#	246508
#	273334
#
# Disc length: 3874 seconds
#
# Revision: 0
# Processed by: cddbd v1.5.2PL0 Copyright (c) Steve Scherf et al.
# Submitted via: CDex 1.51
#
DISCID=ea0f2011
DTITLE=Vinicio Capossela - Canzoni a manovella
DYEAR=2000
DGENRE=Jazz
TTITLE0=Resto qua
TTITLE1=Bardamù
TTITLE2=Polka di Warsawa
TTITLE3=Decervellamento
TTITLE4=Marajà
TTITLE5=Canzone a manovella
TTITLE6=I Pagliacci
TTITLE7=Marcia del Camposanto
TTITLE8=I pianoforti di Lubecca
TTITLE9=Suona Rosamunda
TTITLE10=Intermezzo
TTITLE11=Contratto per Karelias
TTITLE12=Solo Mia
TTITLE13=Corre il soldato
TTITLE14=Signora Luna
TTITLE15=Con una rosa
TTITLE16=Nella Pioggia
EXTD=YEAR: 2000
EXTT0=
EXTT1=
EXTT2=
EXTT3=
EXTT4=
EXTT5=
EXTT6=
EXTT7=
EXTT8=
EXTT9=
EXTT10=
EXTT11=
EXTT12=
EXTT13=
EXTT14=
EXTT15=
EXTT16=
PLAYORDER=
